Fly_normalized_Motion_pl02
version=1
nRows=25
nColumns=43
inDegrees=yes
endheader
time		pelvis_tilt		pelvis_list		pelvis_rotation		pelvis_tx		pelvis_ty		pelvis_tz		hip_flexion_r		hip_adduction_r		hip_rotation_r		knee_angle_r		ankle_angle_r		subtalar_angle_r		mtp_angle_r		hip_flexion_l		hip_adduction_l		hip_rotation_l		knee_angle_l		ankle_angle_l		subtalar_angle_l		mtp_angle_l		lumbar_extension		lumbar_bending		lumbar_rotation		neck_flexion		neck_lateral_bending		neck_rotation		arm_flex_r		arm_add_r		arm_rot_r		elbow_flex_r		pro_sup_r		wrist_flex_r		wrist_dev_r		hand_finger_flex_r		arm_flex_l		arm_add_l		arm_rot_l		elbow_flex_l		pro_sup_l		wrist_flex_l		wrist_dev_l		hand_finger_flex_l		
0.681086		-2.001892		-9.341510		91.789020		0.015024		1.860167		1.285092		54.106477		-6.432854		-0.544670		-90.010732		-7.621102		-2.124767		13.278171		53.807423		-0.833938		-4.635767		-96.000510		-11.753745		-20.561658		-1.603469		-45.016747		-2.019364		2.731685		7.061026		1.166586		-5.921979		114.427110		-21.056840		38.803381		65.503359		82.099882		-32.106138		-5.338454		25.425028		108.241727		-13.000976		27.109434		71.731655		110.326876		-18.569479		13.208373		70.138755		
0.685429		-2.163256		-9.069937		91.587494		0.014695		1.856609		1.277125		54.429565		-6.474632		-0.672362		-88.763485		-7.871666		-2.190119		13.483195		53.805299		-0.764929		-5.200100		-94.626550		-11.852617		-19.813218		-1.262535		-45.217701		-2.195542		2.726000		6.684771		1.120172		-5.878239		112.766406		-21.948926		38.984176		66.769819		82.262974		-32.368301		-5.375281		25.638919		106.806155		-14.076941		27.527536		72.599044		110.037345		-18.299292		13.335157		70.516131		
0.689773		-2.483387		-8.891540		91.269358		0.014705		1.852728		1.269103		54.859393		-6.493992		-0.601058		-87.506620		-8.238931		-2.419850		13.850172		53.817673		-0.691404		-5.904291		-93.183513		-11.763796		-18.630930		-0.558513		-45.293504		-2.621501		2.602227		6.263980		1.190590		-5.805733		110.828800		-22.764383		38.920469		68.117045		82.438825		-33.050698		-5.193961		25.906916		105.353377		-15.177182		27.969804		73.425751		109.542085		-17.941639		13.644495		71.074699		
0.694116		-2.715125		-8.635812		91.029146		0.014736		1.848880		1.260886		55.099663		-6.467888		-0.640609		-86.178706		-8.646035		-2.665991		14.105897		53.716622		-0.635992		-6.473432		-91.703501		-11.796958		-17.508203		0.122443		-45.437713		-2.941869		2.493873		5.852610		1.238481		-5.704682		108.786935		-23.638752		38.864624		69.548038		82.479238		-33.718329		-5.007591		26.149894		103.795268		-16.293913		28.326233		74.276647		109.150875		-17.688519		13.865359		71.513710		
0.698460		-2.838437		-8.350809		90.861643		0.014615		1.844833		1.252610		55.230897		-6.434150		-0.822546		-84.821746		-8.986316		-2.769330		14.279753		53.580871		-0.596768		-6.930095		-90.222961		-11.927574		-16.712406		0.635360		-45.588783		-3.120233		2.439367		5.341208		1.259014		-5.605098		106.894402		-24.679470		39.187443		70.890368		82.547234		-34.063079		-4.922198		26.425608		102.231481		-17.501818		28.787726		75.106273		108.900331		-17.465521		13.996983		71.852217		
0.702803		-2.928480		-8.076294		90.741693		0.014554		1.840677		1.244249		55.295682		-6.374090		-1.032927		-83.410732		-9.392668		-2.848744		14.484011		53.417112		-0.558592		-7.304593		-88.695389		-12.122552		-15.894749		1.355546		-45.727348		-3.262285		2.376169		4.840861		1.275581		-5.494227		104.872285		-25.748833		39.433876		72.322391		82.540172		-34.561197		-4.797389		26.787568		100.595123		-18.725751		29.187588		75.959659		108.611607		-17.335468		14.112862		72.160910		
0.707146		-3.117335		-7.928251		90.506909		0.014885		1.835988		1.235963		55.524010		-6.249161		-1.086291		-81.994822		-9.999781		-3.059802		15.409065		53.315597		-0.581705		-7.777886		-87.118960		-12.290037		-14.724440		4.152082		-45.718742		-3.620983		2.319944		4.372069		1.482043		-5.391217		102.742596		-26.882347		39.717588		73.894258		82.512758		-36.002500		-4.215310		28.188084		99.036757		-19.942697		29.780494		76.722341		107.978971		-17.460148		14.537263		72.752128		
0.711490		-3.118417		-7.618415		90.512512		0.014681		1.831542		1.227512		55.401507		-6.225136		-1.454740		-80.492688		-10.321041		-2.965161		15.398159		53.045853		-0.513289		-8.034209		-85.512717		-12.587885		-14.465332		4.318397		-45.867105		-3.604672		2.187568		3.778132		1.465625		-5.277985		100.638818		-27.916220		39.989624		75.167599		82.461697		-36.149149		-4.317858		28.334592		97.272491		-21.285111		30.101858		77.552912		107.804752		-17.310278		14.520344		72.947562		
0.715833		-3.185211		-7.324379		90.494865		0.014589		1.826768		1.218732		55.292530		-6.213538		-1.749572		-79.059801		-10.753395		-2.890223		15.419486		52.729391		-0.422599		-8.336443		-83.918082		-12.867537		-14.145203		4.656856		-45.968624		-3.679512		1.985424		3.199599		1.512674		-5.064980		98.221582		-28.926763		40.007039		76.649053		82.359064		-36.525077		-4.260818		28.531028		95.392625		-22.716017		30.371145		78.521142		107.456215		-17.155869		14.589177		73.192197		
0.720177		-3.299022		-7.089010		90.432255		0.014632		1.821715		1.209996		55.211759		-6.178462		-1.987108		-77.571367		-11.147265		-2.787728		15.472798		52.416854		-0.344891		-8.699307		-82.292484		-13.118061		-13.922887		5.055240		-46.010473		-3.818109		1.794556		2.596467		1.564119		-4.860108		95.875977		-30.005002		40.184965		78.084693		82.345725		-36.807563		-4.111985		28.847925		93.547803		-24.210339		30.699970		79.441301		107.081599		-16.980137		14.744796		73.442873		
0.724520		-3.657729		-6.931210		90.160319		0.014812		1.816320		1.201212		55.262480		-6.176479		-1.852304		-76.140168		-11.574301		-2.561968		15.852360		52.089840		-0.236669		-9.406759		-80.540894		-13.535236		-14.041097		6.121029		-45.948952		-4.312448		1.434831		1.921721		1.718292		-4.521759		93.221644		-30.915774		39.967472		79.568230		82.779032		-37.198757		-3.315588		30.017391		91.636283		-25.766376		30.958221		80.434527		106.369941		-16.791245		15.414435		73.717192		
0.728864		-3.722746		-6.707424		90.072481		0.014796		1.810836		1.192408		55.091251		-6.101796		-2.076207		-74.586081		-12.016730		-2.290709		15.940593		51.727897		-0.223852		-9.749578		-78.896081		-13.813852		-14.021296		6.465071		-45.973736		-4.414905		1.288176		1.377016		1.636308		-4.414663		90.881648		-32.196657		40.372912		81.000962		83.021800		-37.230579		-3.299658		30.526027		89.686014		-27.326198		31.182329		81.356039		106.092941		-16.661064		15.568879		73.892501		
0.733207		-3.749890		-6.421127		89.974424		0.014852		1.805235		1.183222		54.813765		-5.984705		-2.299612		-73.063898		-12.622593		-1.874230		16.028610		51.248739		-0.270286		-10.084548		-77.282047		-14.111713		-14.136349		6.731584		-46.032748		-4.499209		1.159840		0.847229		1.565879		-4.237830		88.156639		-33.348131		40.329274		82.490227		83.262441		-37.357052		-3.304276		30.974911		87.381461		-28.809130		30.930859		82.375662		105.690014		-16.640156		15.700055		74.015701		
0.737551		-3.816872		-6.149872		89.864257		0.014969		1.799318		1.173960		54.534923		-5.890798		-2.473152		-71.567844		-13.225838		-1.455729		16.160450		50.765252		-0.296071		-10.433584		-75.682756		-14.442400		-14.340686		7.028325		-46.052159		-4.643140		1.011607		0.217519		1.518376		-4.047296		85.352489		-34.539714		40.266433		83.927240		83.604956		-37.398112		-3.188034		31.443894		85.064897		-30.328777		30.745710		83.362405		105.204575		-16.581210		15.916121		74.146549		
0.741894		-3.930136		-5.894036		89.764456		0.015060		1.793190		1.164695		54.238008		-5.829612		-2.597316		-70.064251		-13.816481		-1.070428		16.447439		50.249089		-0.263218		-10.796303		-74.040049		-14.853224		-14.683090		7.556005		-46.052968		-4.816533		0.843229		-0.450950		1.494240		-3.891014		82.468476		-35.735019		40.092838		85.299299		84.212882		-37.337376		-2.907205		32.046759		82.748119		-31.887105		30.651760		84.287646		104.657356		-16.506714		16.236256		74.299730		
0.746237		-3.974267		-5.589237		89.721709		0.014997		1.786840		1.155355		53.837466		-5.781030		-2.813074		-68.559724		-14.372114		-0.790431		16.577283		49.692381		-0.228761		-11.033300		-72.485030		-15.186849		-14.937437		7.854448		-46.088669		-4.888754		0.710132		-1.143431		1.444459		-3.775194		79.624592		-36.994132		40.057071		86.593684		84.581028		-37.314356		-2.775941		32.386362		80.396999		-33.483004		30.590537		85.158380		104.271444		-16.416440		16.406002		74.532413		
0.750581		-4.034621		-5.237392		89.715425		0.014931		1.780632		1.145893		53.306485		-5.761764		-3.021945		-66.990772		-14.974511		-0.525998		16.772217		48.991457		-0.158410		-11.304514		-70.824452		-15.589861		-15.424088		8.255491		-46.196414		-4.961377		0.528255		-1.739907		1.402239		-3.635435		76.462487		-38.057337		39.519302		87.837189		85.126595		-37.287764		-2.499957		32.832929		77.860409		-34.970948		30.191814		85.996590		103.837830		-16.350169		16.617858		74.892708		
0.754924		-4.098430		-4.841171		89.734825		0.014769		1.774165		1.136315		52.707184		-5.781800		-3.247912		-65.462490		-15.527079		-0.347669		16.939614		48.238904		-0.073726		-11.562970		-69.233965		-15.999340		-15.894788		8.599626		-46.334035		-5.011967		0.339485		-2.366175		1.364745		-3.524810		73.251801		-39.145054		38.958568		89.023109		85.728663		-37.208114		-2.254809		33.367393		75.269665		-36.469104		29.756248		86.792146		103.539199		-16.217431		16.799709		75.333138		
0.759268		-4.136738		-4.429161		89.790963		0.014608		1.767431		1.126587		52.053094		-5.797023		-3.498630		-63.967470		-16.065701		-0.237870		17.039684		47.453608		-0.007666		-11.815373		-67.675359		-16.399307		-16.294889		8.824493		-46.468088		-5.025821		0.146014		-2.999820		1.327045		-3.437475		69.910813		-40.237640		38.328932		90.137166		86.282817		-37.163483		-2.119428		33.943053		72.565174		-37.934625		29.185141		87.557180		103.321620		-16.070983		16.974919		75.758505		
0.763611		-4.159591		-4.021179		89.857289		0.014425		1.760432		1.116750		51.365426		-5.811867		-3.771924		-62.473213		-16.606678		-0.191705		17.096446		46.661792		0.044662		-12.034985		-66.155129		-16.804177		-16.631899		8.987696		-46.582206		-5.021890		-0.031445		-3.629805		1.297695		-3.371732		66.429287		-41.306703		37.571094		91.174595		86.803597		-37.111197		-2.055360		34.567888		69.741536		-39.358180		28.478862		88.306249		103.155109		-15.948543		17.198015		76.134620		
0.767955		-4.149093		-3.637994		89.940383		0.014267		1.753127		1.106832		50.674896		-5.803393		-4.066091		-61.002626		-17.166856		-0.200896		17.104380		45.888268		0.063936		-12.219024		-64.663275		-17.197212		-16.879220		9.117704		-46.655394		-4.985862		-0.191430		-4.262327		1.270804		-3.321684		62.827778		-42.347885		36.708947		92.139567		87.210137		-37.039368		-2.029587		35.175026		66.801666		-40.769361		27.680349		89.049948		103.029823		-15.894079		17.465149		76.439038		
0.772298		-4.107768		-3.272335		90.026546		0.014106		1.745510		1.096866		49.972801		-5.774372		-4.383679		-59.542076		-17.751591		-0.269642		17.073390		45.127482		0.057954		-12.354656		-63.202044		-17.579593		-17.073932		9.263245		-46.698316		-4.925337		-0.332280		-4.879333		1.247742		-3.273797		59.084827		-43.323430		35.680035		93.027736		87.505798		-36.881574		-1.976262		35.787648		63.728104		-42.160094		26.760770		89.785996		102.966704		-15.909110		17.744088		76.713217		
0.776641		-4.038839		-2.912749		90.115513		0.013963		1.737599		1.086845		49.254426		-5.724874		-4.720771		-58.108923		-18.362622		-0.377157		17.001812		44.371462		0.030529		-12.453257		-61.778767		-17.953077		-17.225486		9.431244		-46.727937		-4.842973		-0.465949		-5.471646		1.215056		-3.213893		55.226661		-44.214218		34.496728		93.830060		87.662858		-36.645049		-1.872441		36.368878		60.504965		-43.526676		25.708720		90.477304		102.949668		-15.957943		17.931273		77.019069		
0.780985		-3.952867		-2.551493		90.210714		0.013809		1.729497		1.076794		48.514902		-5.661607		-5.060310		-56.686062		-18.983732		-0.503064		16.902706		43.589218		-0.008724		-12.535027		-60.363181		-18.339962		-17.346488		9.610111		-46.762753		-4.730995		-0.595603		-6.027673		1.162969		-3.138694		51.268771		-45.004626		33.154046		94.540364		87.727516		-36.336977		-1.737928		36.928122		57.120058		-44.836989		24.493315		91.088625		102.953837		-15.979301		17.978375		77.417776		
0.785328		-3.860523		-2.168613		90.305418		0.013656		1.721180		1.066676		47.722103		-5.595675		-5.405736		-55.292436		-19.614462		-0.624534		16.788491		42.792345		-0.055843		-12.615354		-58.986009		-18.766376		-17.428054		9.787574		-46.811896		-4.612079		-0.727207		-6.566308		1.071885		-3.050755		47.184292		-45.686481		31.639507		95.150049		87.749584		-35.958916		-1.604556		37.479432		53.567711		-46.060680		23.070836		91.637493		102.968936		-15.942635		17.887426		77.944500		
